<svg width="104" height="19" viewBox="0 0 104 19" fill="none" xmlns="http://www.w3.org/2000/svg">
<g clip-path="url(#clip0_367_204)">
<path d="M23.4297 5.90017H30.5997V7.84017H23.4297V5.90017ZM25.4997 7.01017V6.66017V2.92017H28.0797V14.9002C28.0797 15.4402 28.1897 15.8302 28.4097 16.0602C28.6297 16.2902 28.9497 16.4002 29.3797 16.4002C29.5897 16.4002 29.7897 16.3802 29.9897 16.3302C30.1897 16.2802 30.3897 16.2202 30.5897 16.1402V18.1502C30.3997 18.2402 30.1397 18.3202 29.8097 18.3902C29.4797 18.4602 29.1297 18.5002 28.7397 18.5002C27.7497 18.5002 26.9697 18.2102 26.3797 17.6302C25.7897 17.0502 25.4997 16.1502 25.4997 14.9102V7.01017Z" fill="white"/>
<path d="M32.0901 11.84C32.0901 9.98005 32.6201 8.46005 33.6701 7.30005C34.7301 6.14005 36.1101 5.55005 37.8201 5.55005C39.5301 5.55005 40.8501 6.09005 41.7901 7.19005C42.7301 8.29005 43.2001 9.76005 43.2001 11.63V12.64H33.7701V10.77H40.6201V10.5C40.6201 9.69005 40.3801 8.99005 39.9101 8.42005C39.4401 7.85005 38.7601 7.56005 37.8801 7.56005C36.8201 7.56005 36.0301 7.96005 35.5001 8.75005C34.9701 9.55005 34.7101 10.55 34.7101 11.77V12.27C34.7101 13.47 34.9901 14.47 35.5501 15.27C36.1101 16.07 36.9701 16.46 38.1201 16.46C38.8601 16.46 39.4901 16.29 40.0201 15.96C40.5501 15.63 40.9801 15.23 41.3201 14.78L43.0701 16.05C42.6801 16.69 42.0601 17.25 41.2101 17.75C40.3601 18.25 39.3401 18.5 38.1401 18.5C36.2101 18.5 34.7101 17.92 33.6601 16.75C32.6101 15.59 32.0801 14.07 32.0801 12.2V11.84H32.0901Z" fill="white"/>
<path d="M45.7793 0.300049H48.3793V18.16H45.7793V0.300049Z" fill="white"/>
<path d="M51.05 11.84C51.05 9.98005 51.58 8.46005 52.63 7.30005C53.69 6.14005 55.07 5.55005 56.78 5.55005C58.49 5.55005 59.81 6.09005 60.75 7.19005C61.69 8.29005 62.16 9.76005 62.16 11.63V12.64H52.73V10.77H59.58V10.5C59.58 9.69005 59.34 8.99005 58.87 8.42005C58.4 7.85005 57.72 7.56005 56.84 7.56005C55.78 7.56005 54.99 7.96005 54.46 8.75005C53.93 9.55005 53.67 10.55 53.67 11.77V12.27C53.67 13.47 53.95 14.47 54.51 15.27C55.07 16.07 55.93 16.46 57.08 16.46C57.82 16.46 58.45 16.29 58.98 15.96C59.51 15.63 59.94 15.23 60.28 14.78L62.03 16.05C61.64 16.69 61.02 17.25 60.17 17.75C59.32 18.25 58.3 18.5 57.1 18.5C55.17 18.5 53.67 17.92 52.62 16.75C51.57 15.59 51.04 14.07 51.04 12.2V11.84H51.05Z" fill="white"/>
<path d="M63.9492 11.8401C63.9492 9.96006 64.4792 8.44006 65.5292 7.29006C66.5792 6.13006 68.0092 5.56006 69.8092 5.56006C71.4892 5.56006 72.7592 6.00006 73.6392 6.89006C74.5192 7.77006 74.9692 8.78006 74.9892 9.91006V10.0301H72.4692V9.94006C72.4692 9.31006 72.2492 8.77006 71.8192 8.30006C71.3992 7.82006 70.7192 7.59006 69.7992 7.59006C68.7192 7.59006 67.9192 7.99006 67.3992 8.78006C66.8792 9.57006 66.6092 10.5701 66.6092 11.7801V12.2801C66.6092 13.4801 66.8692 14.4801 67.3792 15.2801C67.8992 16.0801 68.6992 16.4701 69.7992 16.4701C70.7492 16.4701 71.4292 16.2401 71.8392 15.7701C72.2492 15.3001 72.4592 14.7601 72.4592 14.1301V14.0501H74.9892V14.1401C74.9892 15.2701 74.5492 16.2701 73.6592 17.1701C72.7692 18.0601 71.4892 18.5101 69.8092 18.5101C68.0092 18.5101 66.5792 17.9301 65.5292 16.7701C64.4792 15.6101 63.9492 14.0901 63.9492 12.2101V11.8401Z" fill="white"/>
<path d="M77.3694 5.90005H79.7694L79.8594 7.39005H79.9294C80.2194 6.90005 80.5994 6.47005 81.0794 6.10005C81.5594 5.73005 82.1194 5.55005 82.7694 5.55005C82.9294 5.55005 83.1094 5.57005 83.2894 5.61005C83.4694 5.65005 83.5994 5.68005 83.6694 5.72005V8.06005C83.5194 8.03005 83.3694 8.00005 83.1994 7.98005C83.0394 7.96005 82.8494 7.95005 82.6494 7.95005C82.0094 7.95005 81.4594 8.12005 80.9994 8.47005C80.5294 8.82005 80.1894 9.25005 79.9594 9.77005V18.15H77.3594V5.90005H77.3694Z" fill="white"/>
<path d="M85.6799 5.90016H88.0799L88.1599 7.41016H88.2299C88.6399 6.87016 89.1599 6.44016 89.7699 6.13016C90.3899 5.82016 91.0599 5.66016 91.7899 5.66016C92.6199 5.66016 93.3399 5.83016 93.9499 6.17016C94.5599 6.51016 95.0199 7.03016 95.3299 7.75016H95.3899C95.8699 7.04016 96.4399 6.51016 97.0899 6.17016C97.7399 5.83016 98.4699 5.66016 99.2799 5.66016C100.54 5.66016 101.53 6.02016 102.26 6.75016C102.99 7.48016 103.35 8.69016 103.35 10.3902V18.1602H100.74V10.3102C100.74 9.41016 100.55 8.76016 100.17 8.36016C99.7899 7.96016 99.2499 7.76016 98.5399 7.76016C97.9199 7.76016 97.3799 7.93016 96.9099 8.28016C96.4399 8.63016 96.0799 9.08016 95.7999 9.64016V18.1602H93.1999V10.3202C93.1999 9.41016 93.0099 8.76016 92.6299 8.36016C92.2499 7.96016 91.6999 7.76016 90.9799 7.76016C90.3699 7.76016 89.8299 7.93016 89.3699 8.27016C88.9099 8.61016 88.5399 9.07016 88.2699 9.63016V18.1502H85.6699V5.90016H85.6799Z" fill="white"/>
<path d="M4.63 0.429932H13.57C16.13 0.429932 18.2 2.49993 18.2 5.05993V13.9999C18.2 16.5599 16.13 18.6299 13.57 18.6299H4.63C2.07 18.6299 0 16.5599 0 13.9999V5.06993C0 2.50993 2.07 0.429932 4.63 0.429932Z" fill="white"/>
<path fill-rule="evenodd" clip-rule="evenodd" d="M9.09996 9.94996H3.20996V9.45996H9.09996V9.94996Z" fill="#4F38A2"/>
<path fill-rule="evenodd" clip-rule="evenodd" d="M9.09996 10.9299H3.20996V10.4399H9.09996V10.9299Z" fill="#4F38A2"/>
<path fill-rule="evenodd" clip-rule="evenodd" d="M9.09984 11.9099H7.08984V11.4199H9.09984V11.9099Z" fill="#4F38A2"/>
<path fill-rule="evenodd" clip-rule="evenodd" d="M9.09984 12.8899H7.08984V12.3999H9.09984V12.8899Z" fill="#4F38A2"/>
<path fill-rule="evenodd" clip-rule="evenodd" d="M9.09984 13.8699H7.08984V13.3799H9.09984V13.8699Z" fill="#4F38A2"/>
<path fill-rule="evenodd" clip-rule="evenodd" d="M9.09984 14.8499H7.08984V14.3599H9.09984V14.8499Z" fill="#4F38A2"/>
<path fill-rule="evenodd" clip-rule="evenodd" d="M12.8398 5.11987V11.0099H13.3298V5.11987H12.8398Z" fill="#4F38A2"/>
<path fill-rule="evenodd" clip-rule="evenodd" d="M11.8604 5.11987V11.0099H12.3504V5.11987H11.8604Z" fill="#4F38A2"/>
<path fill-rule="evenodd" clip-rule="evenodd" d="M10.8701 5.11987V7.13987H11.3601V5.11987H10.8701Z" fill="#4F38A2"/>
<path fill-rule="evenodd" clip-rule="evenodd" d="M9.88965 5.11987V7.13987H10.3796V5.11987H9.88965Z" fill="#4F38A2"/>
<path fill-rule="evenodd" clip-rule="evenodd" d="M8.91016 5.11987V7.13987H9.40016V5.11987H8.91016Z" fill="#4F38A2"/>
<path fill-rule="evenodd" clip-rule="evenodd" d="M7.92969 5.11987V7.13987H8.41969V5.11987H7.92969Z" fill="#4F38A2"/>
</g>
<defs>
<clipPath id="clip0_367_204">
<rect width="104" height="19" fill="white"/>
</clipPath>
</defs>
</svg>
